<mxfile host="Electron" agent="Mozilla/5.0 (X11; Linux x86_64) AppleWebKit/537.36 (KHTML, like Gecko) draw.io/27.0.9 Chrome/134.0.6998.205 Electron/35.4.0 Safari/537.36" version="27.0.9">
  <diagram name="Page-1" id="KAUIvuCpqOB-XSyjdKiW">
    <mxGraphModel dx="868" dy="533" grid="1" gridSize="10" guides="1" tooltips="1" connect="1" arrows="1" fold="1" page="1" pageScale="1" pageWidth="850" pageHeight="1100" math="0" shadow="0">
      <root>
        <mxCell id="0" />
        <mxCell id="1" parent="0" />
        <mxCell id="zJaemNU4RXcxs4tz9urq-1" value="Mémoire Physique" style="rounded=1;whiteSpace=wrap;html=1;fillColor=#f5f5f5;fontColor=#333333;strokeColor=#666666;shadow=1;" vertex="1" parent="1">
          <mxGeometry x="240" y="290" width="200" height="20" as="geometry" />
        </mxCell>
        <mxCell id="zJaemNU4RXcxs4tz9urq-4" value="" style="edgeStyle=orthogonalEdgeStyle;rounded=0;orthogonalLoop=1;jettySize=auto;html=1;entryX=0.5;entryY=0;entryDx=0;entryDy=0;" edge="1" parent="1" source="zJaemNU4RXcxs4tz9urq-2" target="zJaemNU4RXcxs4tz9urq-1">
          <mxGeometry relative="1" as="geometry" />
        </mxCell>
        <mxCell id="zJaemNU4RXcxs4tz9urq-2" value="MMU" style="rounded=1;whiteSpace=wrap;html=1;points=[[0.2,0,0,0,0],[0.25,1,0,0,0],[0.4,0,0,0,0],[0.5,1,0,0,0],[0.6,0,0,0,0],[0.75,1,0,0,0],[0.8,0,0,0,0]];fillColor=#f5f5f5;fontColor=#333333;strokeColor=#666666;shadow=1;" vertex="1" parent="1">
          <mxGeometry x="240" y="240" width="200" height="20" as="geometry" />
        </mxCell>
        <mxCell id="zJaemNU4RXcxs4tz9urq-5" style="edgeStyle=orthogonalEdgeStyle;rounded=0;orthogonalLoop=1;jettySize=auto;html=1;entryX=0.5;entryY=1;entryDx=0;entryDy=0;" edge="1" parent="1" source="zJaemNU4RXcxs4tz9urq-3" target="zJaemNU4RXcxs4tz9urq-1">
          <mxGeometry relative="1" as="geometry" />
        </mxCell>
        <mxCell id="zJaemNU4RXcxs4tz9urq-6" value="Adresse Physique" style="edgeLabel;html=1;align=center;verticalAlign=middle;resizable=0;points=[];" vertex="1" connectable="0" parent="zJaemNU4RXcxs4tz9urq-5">
          <mxGeometry x="-0.6067" relative="1" as="geometry">
            <mxPoint x="50" as="offset" />
          </mxGeometry>
        </mxCell>
        <mxCell id="zJaemNU4RXcxs4tz9urq-3" value="IOMMU" style="rounded=1;whiteSpace=wrap;html=1;points=[[0.2,1,0,0,0],[0.4,1,0,0,0],[0.5,0,0,0,0],[0.6,1,0,0,0],[0.8,1,0,0,0]];fillColor=#f5f5f5;fontColor=#333333;strokeColor=#666666;shadow=1;" vertex="1" parent="1">
          <mxGeometry x="240" y="340" width="200" height="20" as="geometry" />
        </mxCell>
        <mxCell id="zJaemNU4RXcxs4tz9urq-7" value="Adresse Physique" style="edgeLabel;html=1;align=center;verticalAlign=middle;resizable=0;points=[];" vertex="1" connectable="0" parent="1">
          <mxGeometry x="390" y="270" as="geometry" />
        </mxCell>
        <mxCell id="zJaemNU4RXcxs4tz9urq-8" value="Périphérique" style="rounded=1;whiteSpace=wrap;html=1;fillColor=#f5f5f5;fontColor=#333333;strokeColor=#666666;shadow=1;" vertex="1" parent="1">
          <mxGeometry x="240" y="390" width="80" height="50" as="geometry" />
        </mxCell>
        <mxCell id="zJaemNU4RXcxs4tz9urq-9" value="Périphérique" style="rounded=1;whiteSpace=wrap;html=1;fillColor=#f5f5f5;fontColor=#333333;strokeColor=#666666;shadow=1;" vertex="1" parent="1">
          <mxGeometry x="360" y="390" width="80" height="50" as="geometry" />
        </mxCell>
        <mxCell id="zJaemNU4RXcxs4tz9urq-10" value="Processus" style="rounded=1;whiteSpace=wrap;html=1;fillColor=#f5f5f5;fontColor=#333333;strokeColor=#666666;" vertex="1" parent="1">
          <mxGeometry x="360" y="160" width="80" height="50" as="geometry" />
        </mxCell>
        <mxCell id="zJaemNU4RXcxs4tz9urq-11" value="Processus" style="rounded=1;whiteSpace=wrap;html=1;fillColor=#f5f5f5;fontColor=#333333;strokeColor=#666666;shadow=1;" vertex="1" parent="1">
          <mxGeometry x="240" y="160" width="80" height="50" as="geometry" />
        </mxCell>
        <mxCell id="zJaemNU4RXcxs4tz9urq-12" style="rounded=0;orthogonalLoop=1;jettySize=auto;html=1;exitX=0.5;exitY=1;exitDx=0;exitDy=0;entryX=0.8;entryY=0;entryDx=0;entryDy=0;entryPerimeter=0;" edge="1" parent="1" source="zJaemNU4RXcxs4tz9urq-10" target="zJaemNU4RXcxs4tz9urq-2">
          <mxGeometry relative="1" as="geometry">
            <mxPoint x="510" y="210" as="targetPoint" />
          </mxGeometry>
        </mxCell>
        <mxCell id="zJaemNU4RXcxs4tz9urq-13" style="edgeStyle=orthogonalEdgeStyle;rounded=0;orthogonalLoop=1;jettySize=auto;html=1;entryX=0.2;entryY=0;entryDx=0;entryDy=0;entryPerimeter=0;" edge="1" parent="1" source="zJaemNU4RXcxs4tz9urq-11" target="zJaemNU4RXcxs4tz9urq-2">
          <mxGeometry relative="1" as="geometry" />
        </mxCell>
        <mxCell id="zJaemNU4RXcxs4tz9urq-14" style="edgeStyle=orthogonalEdgeStyle;rounded=0;orthogonalLoop=1;jettySize=auto;html=1;entryX=0.8;entryY=1;entryDx=0;entryDy=0;entryPerimeter=0;" edge="1" parent="1" source="zJaemNU4RXcxs4tz9urq-9" target="zJaemNU4RXcxs4tz9urq-3">
          <mxGeometry relative="1" as="geometry" />
        </mxCell>
        <mxCell id="zJaemNU4RXcxs4tz9urq-16" value="Adresse Virtuelle d&#39;E/S" style="edgeLabel;html=1;align=center;verticalAlign=middle;resizable=0;points=[];" vertex="1" connectable="0" parent="zJaemNU4RXcxs4tz9urq-14">
          <mxGeometry x="-0.6067" relative="1" as="geometry">
            <mxPoint x="60" as="offset" />
          </mxGeometry>
        </mxCell>
        <mxCell id="zJaemNU4RXcxs4tz9urq-15" style="edgeStyle=orthogonalEdgeStyle;rounded=0;orthogonalLoop=1;jettySize=auto;html=1;entryX=0.2;entryY=1;entryDx=0;entryDy=0;entryPerimeter=0;" edge="1" parent="1" source="zJaemNU4RXcxs4tz9urq-8" target="zJaemNU4RXcxs4tz9urq-3">
          <mxGeometry relative="1" as="geometry" />
        </mxCell>
        <mxCell id="zJaemNU4RXcxs4tz9urq-17" value="Adresse Virtuelle" style="edgeLabel;html=1;align=center;verticalAlign=middle;resizable=0;points=[];" vertex="1" connectable="0" parent="1">
          <mxGeometry x="450" y="230" as="geometry" />
        </mxCell>
      </root>
    </mxGraphModel>
  </diagram>
</mxfile>
